<svg xmlns="http://www.w3.org/2000/svg" xmlns:xlink="http://www.w3.org/1999/xlink" width="500" zoomAndPan="magnify" viewBox="0 0 375 374.999991" height="500" preserveAspectRatio="xMidYMid meet" version="1.2"><defs><filter x="0%" y="0%" width="100%" filterUnits="objectBoundingBox" id="0c3e9d6bc9" height="100%"><feColorMatrix values="0 0 0 0 1 0 0 0 0 1 0 0 0 0 1 0 0 0 1 0" type="matrix" in="SourceGraphic"/></filter><clipPath id="0cdaad6d02"><path d="M 0.558594 0.714844 L 75.441406 0.714844 L 75.441406 86.214844 L 0.558594 86.214844 Z M 0.558594 0.714844 "/></clipPath><clipPath id="81eb1561ec"><rect x="0" width="76" y="0" height="87"/></clipPath><clipPath id="ef9b949333"><path d="M 0.53125 0.824219 L 56 0.824219 L 56 102.074219 L 0.53125 102.074219 Z M 0.53125 0.824219 "/></clipPath><clipPath id="5fd7fca4c7"><rect x="0" width="57" y="0" height="104"/></clipPath><clipPath id="51dfb19899"><path d="M 0.414062 33 L 34.914062 33 L 34.914062 35.121094 L 0.414062 35.121094 Z M 0.414062 33 "/></clipPath><clipPath id="00776f8032"><path d="M 0.414062 26 L 5 26 L 5 32 L 0.414062 32 Z M 0.414062 26 "/></clipPath><clipPath id="ce897c7365"><path d="M 31 3 L 34.914062 3 L 34.914062 32 L 31 32 Z M 31 3 "/></clipPath><clipPath id="360258e1e4"><path d="M 1 0.621094 L 10 0.621094 L 10 18 L 1 18 Z M 1 0.621094 "/></clipPath><clipPath id="3c0afc1617"><rect x="0" width="36" y="0" height="36"/></clipPath></defs><g id="69b26f0084"><g mask="url(#71cd9f0cdd)" transform="matrix(1,0,0,1,124,133)"><g clip-path="url(#81eb1561ec)"><g clip-rule="nonzero" clip-path="url(#0cdaad6d02)"><path style=" stroke:none;fill-rule:nonzero;fill:#004aad;fill-opacity:1;" d="M 7.511719 63.574219 C 6.679688 64.070312 5.871094 64.5625 5.039062 65.019531 C 4.472656 65.332031 3.902344 65.65625 3.292969 65.859375 C 2.734375 66.046875 2.179688 65.839844 1.710938 65.480469 C 1.160156 65.0625 0.84375 64.480469 0.78125 63.808594 C 0.734375 63.34375 0.890625 62.890625 1.164062 62.480469 C 1.5 61.980469 2.039062 61.757812 2.519531 61.464844 C 3.492188 60.882812 4.484375 60.335938 5.472656 59.773438 C 6.164062 59.382812 6.863281 58.996094 7.558594 58.605469 C 8.074219 58.316406 8.589844 58.023438 9.101562 57.734375 C 9.246094 57.652344 9.390625 57.570312 9.53125 57.488281 C 9.371094 57.414062 9.21875 57.324219 9.050781 57.273438 C 7.96875 56.945312 6.882812 56.632812 5.804688 56.296875 C 5.273438 56.132812 4.730469 55.988281 4.339844 55.539062 C 3.8125 54.933594 3.644531 54.226562 3.902344 53.488281 C 4.152344 52.769531 4.707031 52.335938 5.484375 52.179688 C 6.160156 52.042969 6.734375 52.332031 7.335938 52.511719 C 8.992188 53.007812 10.640625 53.523438 12.292969 54.035156 C 12.941406 54.234375 13.585938 54.449219 14.238281 54.628906 C 14.375 54.667969 14.574219 54.613281 14.707031 54.539062 C 15.761719 53.945312 16.8125 53.332031 17.863281 52.726562 C 18.546875 52.335938 19.234375 51.949219 19.921875 51.5625 C 19.980469 51.527344 20.054688 51.527344 20.117188 51.496094 C 20.191406 51.453125 20.261719 51.394531 20.332031 51.339844 C 20.253906 51.285156 20.179688 51.207031 20.089844 51.183594 C 19.542969 51.042969 18.988281 50.925781 18.445312 50.777344 C 16.847656 50.34375 15.246094 49.917969 13.65625 49.453125 C 12.953125 49.25 12.335938 48.917969 12.003906 48.175781 C 11.6875 47.46875 11.871094 46.597656 12.320312 46.070312 C 12.703125 45.617188 13.207031 45.40625 13.765625 45.34375 C 14.035156 45.316406 14.328125 45.390625 14.597656 45.464844 C 15.675781 45.75 16.746094 46.050781 17.820312 46.351562 C 19.003906 46.6875 20.183594 47.035156 21.367188 47.367188 C 22.394531 47.65625 23.421875 47.929688 24.449219 48.210938 C 24.65625 48.269531 24.863281 48.34375 25.074219 48.382812 C 25.457031 48.460938 25.710938 48.175781 26 48.015625 C 26.71875 47.625 27.421875 47.203125 28.128906 46.789062 C 29.007812 46.273438 29.878906 45.753906 30.761719 45.242188 C 31.699219 44.699219 32.644531 44.164062 33.582031 43.625 C 33.644531 43.585938 33.6875 43.519531 33.738281 43.46875 C 33.6875 43.4375 33.640625 43.40625 33.589844 43.375 C 32.59375 42.785156 31.601562 42.1875 30.605469 41.605469 C 29.394531 40.894531 28.183594 40.199219 26.96875 39.496094 C 26.527344 39.238281 26.066406 39.003906 25.640625 38.71875 C 25.359375 38.53125 25.097656 38.539062 24.796875 38.625 C 23.675781 38.941406 22.554688 39.246094 21.433594 39.554688 C 20.445312 39.832031 19.460938 40.105469 18.472656 40.378906 C 17.410156 40.675781 16.347656 40.984375 15.28125 41.265625 C 14.78125 41.394531 14.273438 41.539062 13.761719 41.570312 C 13 41.613281 12.050781 40.863281 11.898438 40.136719 C 11.652344 38.984375 12.152344 37.964844 13.371094 37.589844 C 14.519531 37.238281 15.6875 36.953125 16.847656 36.632812 C 17.863281 36.351562 18.878906 36.066406 19.894531 35.78125 C 19.941406 35.769531 19.988281 35.757812 20.035156 35.746094 C 20.132812 35.71875 20.226562 35.695312 20.324219 35.667969 C 20.246094 35.601562 20.179688 35.519531 20.09375 35.46875 C 18.945312 34.796875 17.792969 34.128906 16.636719 33.46875 C 16.011719 33.109375 15.378906 32.769531 14.757812 32.40625 C 14.378906 32.179688 14.027344 32.363281 13.6875 32.46875 C 12.191406 32.921875 10.707031 33.40625 9.21875 33.871094 C 8.308594 34.15625 7.402344 34.449219 6.480469 34.695312 C 5.457031 34.972656 4.617188 34.65625 4.042969 33.738281 C 3.671875 33.152344 3.753906 32.199219 4.179688 31.589844 C 4.617188 30.972656 5.285156 30.808594 5.929688 30.597656 C 7.003906 30.246094 8.089844 29.933594 9.171875 29.605469 C 9.207031 29.59375 9.25 29.589844 9.285156 29.578125 C 9.375 29.554688 9.460938 29.527344 9.546875 29.503906 C 9.464844 29.433594 9.390625 29.351562 9.296875 29.300781 C 8.683594 28.953125 8.058594 28.613281 7.441406 28.265625 C 6.722656 27.855469 6 27.445312 5.285156 27.035156 C 4.070312 26.335938 2.828125 25.683594 1.652344 24.921875 C 0.910156 24.4375 0.582031 23.441406 0.96875 22.480469 C 1.316406 21.625 1.929688 21.125 2.820312 21.019531 C 3.144531 20.980469 3.535156 21.078125 3.828125 21.238281 C 4.804688 21.757812 5.746094 22.332031 6.703125 22.886719 C 7.652344 23.433594 8.605469 23.976562 9.546875 24.53125 C 10.195312 24.910156 10.835938 25.308594 11.480469 25.695312 C 11.539062 25.730469 11.609375 25.746094 11.671875 25.769531 C 11.667969 25.695312 11.667969 25.625 11.652344 25.554688 C 11.398438 24.402344 11.132812 23.25 10.890625 22.09375 C 10.800781 21.679688 10.734375 21.261719 10.699219 20.839844 C 10.617188 19.839844 11.667969 18.890625 12.621094 18.886719 C 13.785156 18.882812 14.5625 19.761719 14.761719 20.800781 C 14.898438 21.5 15.0625 22.199219 15.222656 22.894531 C 15.421875 23.796875 15.632812 24.695312 15.835938 25.59375 C 16.050781 26.53125 16.238281 27.476562 16.492188 28.40625 C 16.550781 28.613281 16.800781 28.808594 17.011719 28.933594 C 18.113281 29.585938 19.234375 30.210938 20.339844 30.855469 C 20.964844 31.21875 21.578125 31.601562 22.195312 31.972656 C 22.25 32.003906 22.328125 32 22.394531 32.011719 C 22.386719 31.953125 22.390625 31.894531 22.375 31.835938 C 22.082031 30.699219 21.785156 29.5625 21.488281 28.425781 C 21.199219 27.304688 20.910156 26.1875 20.628906 25.066406 C 20.335938 23.902344 20.953125 22.714844 22.1875 22.488281 C 23.34375 22.273438 24.265625 22.894531 24.601562 24.105469 C 24.925781 25.296875 25.226562 26.492188 25.53125 27.691406 C 25.816406 28.8125 26.089844 29.933594 26.378906 31.054688 C 26.691406 32.257812 26.988281 33.464844 27.347656 34.65625 C 27.421875 34.890625 27.714844 35.09375 27.957031 35.234375 C 29.480469 36.117188 31.023438 36.976562 32.554688 37.847656 C 33.601562 38.441406 34.640625 39.042969 35.691406 39.632812 C 35.949219 39.78125 35.898438 39.558594 35.902344 39.425781 C 35.902344 38.652344 35.898438 37.878906 35.902344 37.109375 C 35.925781 34.808594 35.945312 32.507812 35.976562 30.210938 C 35.976562 30.015625 35.921875 29.882812 35.78125 29.746094 C 34.855469 28.832031 33.941406 27.902344 33.015625 26.988281 C 31.984375 25.964844 30.941406 24.949219 29.902344 23.929688 C 29.273438 23.316406 28.625 22.714844 28.007812 22.089844 C 27.582031 21.660156 27.332031 21.148438 27.335938 20.527344 C 27.339844 19.625 28 18.800781 28.917969 18.59375 C 29.726562 18.410156 30.347656 18.734375 30.921875 19.234375 C 31.050781 19.347656 31.164062 19.472656 31.285156 19.59375 C 32.742188 21.03125 34.199219 22.46875 35.65625 23.90625 C 35.707031 23.957031 35.761719 24.011719 35.8125 24.0625 C 35.867188 24.117188 35.917969 24.171875 35.96875 24.226562 C 35.992188 24.140625 36.035156 24.054688 36.035156 23.96875 C 36.039062 23.082031 36.046875 22.191406 36.035156 21.300781 C 36.023438 20.066406 36 18.835938 35.972656 17.601562 C 35.96875 17.5 35.921875 17.375 35.847656 17.308594 C 35.042969 16.550781 34.230469 15.804688 33.417969 15.054688 C 33.101562 14.765625 32.789062 14.476562 32.480469 14.179688 C 31.589844 13.335938 30.703125 12.488281 29.816406 11.640625 C 29.246094 11.097656 29.042969 10.410156 29.265625 9.679688 C 29.492188 8.933594 30.003906 8.417969 30.820312 8.238281 C 31.5 8.089844 32.066406 8.3125 32.582031 8.699219 C 32.902344 8.945312 33.183594 9.246094 33.480469 9.527344 C 34.253906 10.257812 35.03125 10.996094 35.808594 11.726562 C 35.84375 11.761719 35.890625 11.78125 35.933594 11.808594 C 35.949219 11.753906 35.980469 11.699219 35.976562 11.644531 C 35.960938 11.019531 35.921875 10.394531 35.921875 9.765625 C 35.914062 7.449219 35.910156 5.128906 35.925781 2.8125 C 35.929688 1.859375 36.695312 1.035156 37.632812 0.875 C 38.460938 0.734375 39.148438 0.945312 39.722656 1.542969 C 40.0625 1.898438 40.234375 2.332031 40.238281 2.820312 C 40.242188 5.128906 40.242188 7.433594 40.234375 9.742188 C 40.230469 10.328125 40.1875 10.910156 40.175781 11.496094 C 40.175781 11.597656 40.234375 11.703125 40.265625 11.804688 C 40.332031 11.742188 40.394531 11.675781 40.464844 11.613281 C 41.035156 11.082031 41.613281 10.554688 42.183594 10.019531 C 42.621094 9.613281 43.042969 9.1875 43.488281 8.789062 C 44.15625 8.1875 45.011719 8.003906 45.816406 8.410156 C 46.699219 8.855469 47.230469 9.859375 46.820312 10.902344 C 46.71875 11.15625 46.5625 11.410156 46.371094 11.601562 C 45.820312 12.167969 45.246094 12.707031 44.671875 13.246094 C 44.035156 13.851562 43.394531 14.445312 42.75 15.042969 C 41.945312 15.785156 41.132812 16.519531 40.339844 17.273438 C 40.242188 17.363281 40.179688 17.535156 40.175781 17.671875 C 40.160156 18.488281 40.175781 19.304688 40.164062 20.117188 C 40.152344 20.992188 40.121094 21.867188 40.105469 22.738281 C 40.097656 23.167969 40.097656 23.59375 40.105469 24.019531 C 40.105469 24.09375 40.15625 24.167969 40.179688 24.242188 C 40.238281 24.191406 40.304688 24.148438 40.355469 24.09375 C 40.421875 24.015625 40.46875 23.925781 40.542969 23.855469 C 42.074219 22.34375 43.601562 20.828125 45.140625 19.324219 C 45.621094 18.855469 46.171875 18.496094 46.882812 18.550781 C 47.761719 18.617188 48.5625 19.195312 48.75 20.160156 C 48.910156 20.972656 48.636719 21.605469 48.082031 22.152344 C 47.636719 22.597656 47.171875 23.023438 46.71875 23.457031 C 46.566406 23.601562 46.421875 23.753906 46.273438 23.902344 C 44.296875 25.855469 42.324219 27.808594 40.34375 29.757812 C 40.214844 29.886719 40.15625 30.007812 40.15625 30.191406 C 40.167969 31.453125 40.152344 32.710938 40.164062 33.972656 C 40.175781 35.796875 40.199219 37.617188 40.222656 39.441406 C 40.226562 39.535156 40.265625 39.632812 40.289062 39.730469 C 40.355469 39.679688 40.421875 39.625 40.492188 39.582031 C 40.9375 39.328125 41.378906 39.070312 41.828125 38.820312 C 42.847656 38.242188 43.871094 37.667969 44.890625 37.089844 C 45.832031 36.554688 46.773438 36.015625 47.714844 35.476562 C 47.871094 35.386719 48.011719 35.261719 48.175781 35.214844 C 48.746094 35.050781 48.867188 34.578125 48.988281 34.101562 C 49.34375 32.722656 49.703125 31.34375 50.050781 29.964844 C 50.402344 28.585938 50.734375 27.203125 51.09375 25.824219 C 51.285156 25.082031 51.421875 24.304688 51.746094 23.617188 C 52.382812 22.253906 54.101562 22.101562 55.046875 23.117188 C 55.636719 23.753906 55.667969 24.527344 55.457031 25.332031 C 55.054688 26.871094 54.664062 28.414062 54.261719 29.953125 C 54.09375 30.601562 53.902344 31.242188 53.722656 31.890625 C 53.707031 31.949219 53.726562 32.015625 53.730469 32.078125 C 53.785156 32.0625 53.847656 32.054688 53.898438 32.027344 C 54.6875 31.558594 55.476562 31.085938 56.269531 30.617188 C 57.101562 30.121094 57.933594 29.628906 58.765625 29.136719 C 58.894531 29.0625 59.023438 28.984375 59.160156 28.933594 C 59.667969 28.753906 59.6875 28.277344 59.785156 27.871094 C 60.160156 26.316406 60.515625 24.761719 60.871094 23.207031 C 61.089844 22.257812 61.246094 21.292969 61.523438 20.359375 C 61.898438 19.089844 63.304688 18.523438 64.476562 19.191406 C 65.0625 19.527344 65.367188 20.046875 65.453125 20.722656 C 65.519531 21.25 65.355469 21.742188 65.25 22.238281 C 65.058594 23.164062 64.832031 24.078125 64.617188 24.996094 C 64.570312 25.207031 64.492188 25.410156 64.449219 25.621094 C 64.4375 25.6875 64.484375 25.765625 64.503906 25.839844 C 64.554688 25.820312 64.613281 25.816406 64.65625 25.789062 C 65.207031 25.433594 65.746094 25.058594 66.308594 24.71875 C 67.207031 24.183594 68.117188 23.667969 69.023438 23.140625 C 69.746094 22.71875 70.464844 22.285156 71.191406 21.867188 C 71.621094 21.621094 72.039062 21.34375 72.492188 21.171875 C 73.449219 20.816406 74.429688 21.222656 74.949219 22.074219 C 75.554688 23.070312 75.5 24.019531 74.597656 24.855469 C 74.269531 25.160156 73.835938 25.351562 73.441406 25.582031 C 72.445312 26.164062 71.445312 26.742188 70.441406 27.308594 C 69.59375 27.789062 68.734375 28.25 67.882812 28.726562 C 67.511719 28.929688 67.144531 29.140625 66.78125 29.359375 C 66.722656 29.390625 66.691406 29.472656 66.648438 29.535156 C 66.707031 29.558594 66.757812 29.589844 66.816406 29.605469 C 67.242188 29.734375 67.667969 29.859375 68.089844 29.992188 C 69.023438 30.285156 69.957031 30.589844 70.894531 30.878906 C 71.78125 31.152344 72.4375 31.972656 72.292969 33.136719 C 72.210938 33.796875 71.648438 34.566406 70.730469 34.765625 C 70.074219 34.90625 69.503906 34.683594 68.914062 34.5 C 67.328125 34.011719 65.742188 33.527344 64.152344 33.035156 C 63.433594 32.8125 62.71875 32.554688 61.988281 32.363281 C 61.777344 32.308594 61.488281 32.363281 61.292969 32.472656 C 60.113281 33.128906 58.949219 33.820312 57.777344 34.492188 C 57.179688 34.835938 56.574219 35.167969 55.976562 35.511719 C 55.917969 35.546875 55.890625 35.632812 55.847656 35.691406 C 55.90625 35.714844 55.960938 35.746094 56.019531 35.761719 C 56.535156 35.890625 57.058594 36.003906 57.574219 36.148438 C 58.996094 36.542969 60.417969 36.949219 61.835938 37.355469 C 62.234375 37.46875 62.628906 37.59375 63.011719 37.738281 C 63.699219 38 64.097656 38.496094 64.234375 39.222656 C 64.449219 40.375 63.753906 41.199219 62.871094 41.527344 C 62.402344 41.703125 61.910156 41.617188 61.433594 41.484375 C 59.917969 41.058594 58.398438 40.632812 56.878906 40.210938 C 55.589844 39.847656 54.296875 39.492188 53.007812 39.125 C 52.375 38.945312 51.753906 38.71875 51.113281 38.574219 C 50.910156 38.53125 50.636719 38.636719 50.4375 38.753906 C 48.902344 39.648438 47.378906 40.566406 45.84375 41.46875 C 44.824219 42.070312 43.796875 42.65625 42.773438 43.253906 C 42.671875 43.3125 42.59375 43.414062 42.503906 43.496094 C 42.585938 43.5625 42.660156 43.640625 42.75 43.695312 C 43.941406 44.414062 45.136719 45.136719 46.335938 45.84375 C 47.433594 46.488281 48.539062 47.117188 49.640625 47.753906 C 49.9375 47.929688 50.226562 48.125 50.542969 48.265625 C 50.734375 48.351562 50.984375 48.429688 51.175781 48.382812 C 52.617188 48.003906 54.046875 47.601562 55.480469 47.195312 C 56.480469 46.910156 57.476562 46.59375 58.480469 46.3125 C 59.550781 46.007812 60.628906 45.71875 61.703125 45.4375 C 62.753906 45.160156 63.832031 45.777344 64.167969 46.753906 C 64.53125 47.808594 63.96875 49.015625 62.796875 49.355469 C 61.417969 49.757812 60.023438 50.117188 58.636719 50.5 C 57.886719 50.707031 57.140625 50.925781 56.390625 51.132812 C 56.285156 51.164062 56.167969 51.164062 56.070312 51.203125 C 55.988281 51.234375 55.917969 51.300781 55.84375 51.351562 C 55.902344 51.40625 55.957031 51.472656 56.023438 51.511719 C 56.390625 51.726562 56.761719 51.929688 57.128906 52.140625 C 58.121094 52.707031 59.109375 53.28125 60.105469 53.84375 C 60.601562 54.125 61.105469 54.390625 61.613281 54.652344 C 61.6875 54.6875 61.804688 54.667969 61.890625 54.640625 C 63.25 54.21875 64.609375 53.785156 65.96875 53.367188 C 67.207031 52.984375 68.449219 52.605469 69.695312 52.246094 C 70.941406 51.890625 72.304688 52.804688 72.296875 54.15625 C 72.292969 55.269531 71.597656 55.957031 70.519531 56.285156 C 69.785156 56.507812 69.046875 56.714844 68.308594 56.929688 C 67.828125 57.074219 67.347656 57.214844 66.871094 57.367188 C 66.789062 57.394531 66.71875 57.464844 66.644531 57.511719 C 66.699219 57.570312 66.746094 57.644531 66.808594 57.679688 C 67.703125 58.183594 68.601562 58.671875 69.492188 59.179688 C 70.792969 59.921875 72.089844 60.671875 73.386719 61.425781 C 73.78125 61.652344 74.171875 61.886719 74.554688 62.136719 C 74.992188 62.421875 75.183594 62.863281 75.273438 63.363281 C 75.4375 64.300781 75.039062 65.027344 74.335938 65.550781 C 73.617188 66.089844 72.894531 66.113281 71.976562 65.601562 C 71.210938 65.171875 70.453125 64.722656 69.699219 64.277344 C 68.542969 63.589844 67.390625 62.894531 66.234375 62.210938 C 65.753906 61.921875 65.261719 61.644531 64.773438 61.367188 C 64.699219 61.324219 64.609375 61.308594 64.527344 61.277344 C 64.515625 61.386719 64.472656 61.5 64.492188 61.601562 C 64.558594 61.929688 64.652344 62.253906 64.726562 62.582031 C 64.941406 63.539062 65.132812 64.507812 65.367188 65.460938 C 65.558594 66.242188 65.410156 66.925781 64.847656 67.492188 C 64.140625 68.207031 63.15625 68.28125 62.296875 67.734375 C 61.714844 67.367188 61.503906 66.78125 61.359375 66.160156 C 61.105469 65.078125 60.839844 64 60.601562 62.917969 C 60.316406 61.636719 60.03125 60.355469 59.78125 59.066406 C 59.667969 58.476562 59.324219 58.144531 58.832031 57.863281 C 57.261719 56.96875 55.710938 56.046875 54.148438 55.140625 C 54.046875 55.082031 53.917969 55.074219 53.804688 55.042969 C 53.804688 55.152344 53.78125 55.265625 53.808594 55.371094 C 54.136719 56.632812 54.476562 57.886719 54.796875 59.152344 C 55.070312 60.226562 55.386719 61.296875 55.558594 62.386719 C 55.667969 63.101562 55.304688 63.738281 54.6875 64.152344 C 53.808594 64.734375 52.882812 64.625 52.132812 63.964844 C 51.742188 63.617188 51.578125 63.109375 51.449219 62.601562 C 51.105469 61.230469 50.75 59.863281 50.398438 58.492188 C 50.03125 57.046875 49.664062 55.601562 49.296875 54.15625 C 49.140625 53.554688 48.980469 52.953125 48.832031 52.347656 C 48.75 52.003906 48.445312 51.914062 48.195312 51.765625 C 46.925781 51.042969 45.65625 50.324219 44.390625 49.605469 C 43.277344 48.96875 42.164062 48.332031 41.050781 47.695312 C 40.878906 47.601562 40.707031 47.503906 40.535156 47.410156 C 40.25 47.265625 40.21875 47.285156 40.21875 47.617188 C 40.214844 48.359375 40.222656 49.097656 40.214844 49.839844 C 40.195312 52.140625 40.175781 54.4375 40.144531 56.738281 C 40.140625 56.976562 40.222656 57.144531 40.386719 57.308594 C 41.734375 58.628906 43.078125 59.957031 44.425781 61.28125 C 45.476562 62.316406 46.539062 63.34375 47.582031 64.386719 C 47.929688 64.734375 48.3125 65.082031 48.554688 65.503906 C 48.960938 66.214844 48.863281 66.972656 48.378906 67.617188 C 47.910156 68.242188 47.234375 68.496094 46.457031 68.402344 C 46.023438 68.347656 45.640625 68.140625 45.328125 67.839844 C 44.230469 66.773438 43.140625 65.699219 42.054688 64.625 C 41.488281 64.070312 40.929688 63.503906 40.367188 62.945312 C 40.3125 62.890625 40.238281 62.859375 40.171875 62.820312 C 40.140625 62.902344 40.085938 62.984375 40.085938 63.066406 C 40.097656 63.441406 40.140625 63.8125 40.140625 64.183594 C 40.136719 64.652344 40.082031 65.121094 40.085938 65.589844 C 40.09375 66.84375 40.113281 68.097656 40.152344 69.351562 C 40.15625 69.511719 40.273438 69.699219 40.390625 69.816406 C 40.777344 70.191406 41.195312 70.535156 41.589844 70.902344 C 42.300781 71.566406 43.003906 72.234375 43.714844 72.902344 C 44.285156 73.433594 44.871094 73.953125 45.433594 74.5 C 45.859375 74.914062 46.320312 75.316406 46.652344 75.800781 C 47.183594 76.585938 46.890625 77.714844 46.164062 78.324219 C 45.390625 78.96875 44.097656 78.84375 43.460938 78.1875 C 43.050781 77.761719 42.585938 77.390625 42.152344 76.988281 C 41.535156 76.421875 40.929688 75.851562 40.316406 75.285156 C 40.285156 75.257812 40.21875 75.222656 40.207031 75.234375 C 40.175781 75.265625 40.140625 75.316406 40.140625 75.359375 C 40.160156 75.988281 40.179688 76.613281 40.199219 77.238281 C 40.203125 77.3125 40.203125 77.386719 40.203125 77.460938 C 40.199219 79.675781 40.21875 81.886719 40.1875 84.097656 C 40.175781 85.097656 39.605469 85.792969 38.679688 86.050781 C 37.859375 86.277344 37.078125 86.105469 36.457031 85.507812 C 36.097656 85.167969 35.886719 84.699219 35.886719 84.199219 C 35.871094 81.964844 35.875 79.730469 35.886719 77.496094 C 35.886719 76.804688 35.925781 76.117188 35.945312 75.425781 C 35.945312 75.351562 35.917969 75.273438 35.902344 75.199219 C 35.839844 75.246094 35.769531 75.285156 35.710938 75.339844 C 35.042969 75.960938 34.386719 76.589844 33.714844 77.199219 C 33.25 77.625 32.800781 78.074219 32.285156 78.425781 C 31.117188 79.21875 29.460938 78.554688 29.203125 77.085938 C 29.074219 76.34375 29.328125 75.757812 29.820312 75.265625 C 30.597656 74.488281 31.410156 73.746094 32.214844 72.992188 C 32.78125 72.457031 33.355469 71.925781 33.933594 71.398438 C 34.554688 70.835938 35.1875 70.277344 35.808594 69.710938 C 35.875 69.648438 35.910156 69.542969 35.949219 69.453125 C 35.960938 69.417969 35.949219 69.371094 35.949219 69.328125 C 35.972656 67.242188 35.996094 65.152344 36.015625 63.066406 C 36.015625 62.96875 35.972656 62.875 35.949219 62.777344 C 35.875 62.832031 35.792969 62.878906 35.726562 62.945312 C 35.238281 63.429688 34.753906 63.917969 34.265625 64.402344 C 33.097656 65.546875 31.9375 66.699219 30.761719 67.832031 C 30.25 68.324219 29.601562 68.527344 28.914062 68.363281 C 28.109375 68.171875 27.574219 67.671875 27.367188 66.828125 C 27.140625 65.902344 27.6875 65.039062 28.324219 64.523438 C 28.378906 64.476562 28.441406 64.441406 28.492188 64.390625 C 30.417969 62.492188 32.339844 60.589844 34.265625 58.691406 C 34.75 58.214844 35.261719 57.757812 35.734375 57.269531 C 35.855469 57.144531 35.945312 56.933594 35.945312 56.761719 C 35.960938 54.613281 35.964844 52.464844 35.957031 50.316406 C 35.953125 49.464844 35.914062 48.617188 35.898438 47.769531 C 35.890625 47.261719 35.890625 47.246094 35.421875 47.507812 C 34.34375 48.101562 33.273438 48.71875 32.203125 49.324219 C 31.386719 49.78125 30.566406 50.234375 29.75 50.691406 C 29.011719 51.109375 28.273438 51.519531 27.546875 51.957031 C 27.414062 52.035156 27.304688 52.21875 27.265625 52.371094 C 26.957031 53.507812 26.667969 54.644531 26.371094 55.78125 C 26.050781 57.015625 25.726562 58.25 25.410156 59.484375 C 25.109375 60.660156 24.855469 61.851562 24.507812 63.015625 C 24.265625 63.8125 23.71875 64.332031 22.828125 64.464844 C 21.632812 64.644531 20.664062 63.691406 20.566406 62.738281 C 20.5 62.082031 20.726562 61.503906 20.871094 60.90625 C 21.238281 59.378906 21.652344 57.863281 22.046875 56.34375 C 22.152344 55.945312 22.261719 55.546875 22.367188 55.144531 C 22.386719 55.074219 22.386719 55 22.394531 54.929688 C 22.320312 54.949219 22.234375 54.957031 22.167969 54.992188 C 21.582031 55.335938 20.992188 55.683594 20.40625 56.027344 C 19.683594 56.453125 18.960938 56.882812 18.234375 57.304688 C 17.800781 57.558594 17.363281 57.804688 16.921875 58.046875 C 16.546875 58.25 16.445312 58.597656 16.359375 58.984375 C 16.019531 60.503906 15.664062 62.019531 15.308594 63.535156 C 15.058594 64.59375 14.808594 65.65625 14.542969 66.710938 C 14.359375 67.4375 13.808594 67.820312 13.136719 68 C 11.898438 68.332031 10.765625 67.390625 10.664062 66.222656 C 10.609375 65.601562 10.816406 65.03125 10.933594 64.445312 C 11.117188 63.53125 11.351562 62.628906 11.566406 61.722656 C 11.589844 61.609375 11.640625 61.5 11.671875 61.386719 C 11.691406 61.320312 11.691406 61.253906 11.699219 61.1875 C 11.628906 61.195312 11.546875 61.179688 11.492188 61.214844 C 10.988281 61.511719 10.492188 61.816406 9.988281 62.117188 C 9.257812 62.550781 8.527344 62.984375 7.796875 63.417969 C 7.710938 63.46875 7.617188 63.511719 7.511719 63.574219 Z M 7.511719 63.574219 "/></g></g><mask id="71cd9f0cdd"><g filter="url(#0c3e9d6bc9)"><rect x="0" width="375" y="0" height="374.999991" style="fill:#000000;fill-opacity:0.12;stroke:none;"/></g></mask></g><g mask="url(#fde8b3271b)" transform="matrix(1,0,0,1,180,136)"><g clip-path="url(#5fd7fca4c7)"><g clip-rule="nonzero" clip-path="url(#ef9b949333)"><path style=" stroke:none;fill-rule:nonzero;fill:#ed1c24;fill-opacity:1;" d="M 53.089844 44.691406 C 52.621094 45.867188 52.0625 46.949219 51.441406 47.96875 C 50.199219 50.003906 48.699219 51.800781 47.085938 53.59375 C 45.460938 55.378906 43.714844 57.148438 41.941406 59.019531 C 40.167969 60.894531 38.355469 62.867188 36.644531 65.101562 C 36.21875 65.660156 35.800781 66.238281 35.386719 66.832031 C 34.980469 67.429688 34.582031 68.046875 34.195312 68.683594 C 33.433594 69.964844 32.730469 71.339844 32.167969 72.835938 C 32.03125 73.210938 31.890625 73.585938 31.769531 73.976562 C 31.710938 74.167969 31.652344 74.363281 31.59375 74.558594 L 31.441406 75.15625 C 31.230469 75.949219 31.09375 76.777344 30.992188 77.609375 C 30.804688 79.277344 30.878906 81.007812 31.214844 82.640625 C 31.546875 84.277344 32.132812 85.808594 32.886719 87.179688 C 33.640625 88.550781 34.546875 89.761719 35.542969 90.835938 C 36.535156 91.917969 37.636719 92.835938 38.78125 93.660156 C 39.070312 93.863281 39.355469 94.066406 39.652344 94.253906 L 40.554688 94.800781 C 40.859375 94.976562 41.160156 95.144531 41.480469 95.300781 C 41.792969 95.457031 42.109375 95.613281 42.429688 95.753906 C 42.300781 95.421875 42.164062 95.101562 42.027344 94.785156 C 41.960938 94.625 41.886719 94.46875 41.816406 94.316406 C 41.75 94.160156 41.683594 94 41.617188 93.839844 L 41.214844 92.917969 C 41.089844 92.605469 40.960938 92.300781 40.835938 91.996094 C 40.339844 90.777344 39.875 89.59375 39.519531 88.421875 C 39.160156 87.253906 38.886719 86.117188 38.734375 85.03125 C 38.582031 83.941406 38.550781 82.910156 38.632812 81.9375 C 38.640625 81.695312 38.6875 81.453125 38.714844 81.21875 C 38.738281 80.980469 38.804688 80.746094 38.839844 80.515625 C 38.886719 80.28125 38.953125 80.054688 39.003906 79.824219 L 39.210938 79.144531 C 39.367188 78.691406 39.535156 78.246094 39.734375 77.792969 L 39.882812 77.457031 C 39.9375 77.34375 39.996094 77.230469 40.050781 77.117188 C 40.152344 76.890625 40.277344 76.664062 40.398438 76.441406 C 41.363281 74.625 42.699219 72.765625 44.167969 70.839844 C 45.636719 68.90625 47.25 66.910156 48.828125 64.753906 C 50.402344 62.601562 51.960938 60.289062 53.253906 57.71875 C 53.902344 56.4375 54.480469 55.089844 54.933594 53.679688 C 55.386719 52.273438 55.722656 50.808594 55.867188 49.324219 C 56.015625 47.835938 55.976562 46.332031 55.710938 44.898438 C 55.441406 43.460938 54.96875 42.089844 54.25 40.875 C 53.925781 42.25 53.566406 43.519531 53.089844 44.691406 Z M 47.773438 23.53125 C 47.25 25.285156 46.585938 26.941406 45.792969 28.519531 C 44.207031 31.667969 42.148438 34.503906 39.882812 37.261719 C 37.613281 40.015625 35.132812 42.6875 32.613281 45.457031 C 30.09375 48.222656 27.523438 51.078125 25.105469 54.238281 C 24.503906 55.03125 23.910156 55.84375 23.328125 56.671875 C 22.753906 57.507812 22.195312 58.367188 21.652344 59.25 C 20.578125 61.019531 19.589844 62.910156 18.796875 64.9375 C 17.996094 66.960938 17.390625 69.128906 17.097656 71.375 C 16.796875 73.617188 16.847656 75.929688 17.238281 78.144531 C 17.621094 80.359375 18.347656 82.464844 19.304688 84.378906 C 20.257812 86.296875 21.429688 88.03125 22.726562 89.601562 C 23.058594 89.988281 23.386719 90.378906 23.722656 90.753906 C 24.074219 91.117188 24.417969 91.480469 24.769531 91.839844 C 25.113281 92.203125 25.492188 92.53125 25.855469 92.867188 C 26.039062 93.035156 26.222656 93.207031 26.40625 93.371094 C 26.59375 93.535156 26.789062 93.6875 26.980469 93.847656 C 27.363281 94.160156 27.734375 94.476562 28.125 94.777344 L 29.316406 95.652344 C 29.519531 95.792969 29.714844 95.933594 29.917969 96.070312 C 30.125 96.207031 30.328125 96.34375 30.539062 96.472656 C 30.953125 96.734375 31.367188 96.996094 31.789062 97.242188 C 31.5625 96.804688 31.324219 96.378906 31.085938 95.957031 C 30.96875 95.742188 30.847656 95.539062 30.726562 95.328125 C 30.609375 95.117188 30.496094 94.902344 30.382812 94.691406 L 29.6875 93.441406 C 29.472656 93.015625 29.246094 92.601562 29.027344 92.1875 C 28.175781 90.511719 27.351562 88.859375 26.703125 87.1875 C 26.042969 85.523438 25.503906 83.863281 25.148438 82.230469 C 24.796875 80.597656 24.628906 78.992188 24.65625 77.441406 C 24.664062 77.246094 24.648438 77.054688 24.671875 76.859375 C 24.6875 76.667969 24.703125 76.476562 24.714844 76.285156 L 24.730469 76 C 24.742188 75.902344 24.757812 75.808594 24.769531 75.714844 L 24.84375 75.144531 C 24.863281 74.957031 24.90625 74.769531 24.9375 74.582031 L 25.039062 74.023438 C 25.132812 73.648438 25.21875 73.277344 25.3125 72.910156 C 25.523438 72.171875 25.761719 71.441406 26.050781 70.710938 L 26.269531 70.167969 L 26.511719 69.625 C 26.664062 69.261719 26.847656 68.902344 27.023438 68.542969 C 28.457031 65.660156 30.457031 62.832031 32.625 59.976562 C 34.804688 57.121094 37.175781 54.238281 39.5 51.191406 C 41.820312 48.140625 44.113281 44.925781 46.054688 41.386719 C 47.023438 39.617188 47.902344 37.773438 48.621094 35.84375 C 49.339844 33.921875 49.898438 31.914062 50.21875 29.871094 C 50.863281 25.789062 50.476562 21.554688 48.867188 17.972656 C 48.628906 19.921875 48.289062 21.773438 47.773438 23.53125 Z M 40.390625 0.820312 C 41.273438 3.128906 41.800781 5.613281 41.972656 8.152344 C 42.152344 10.691406 41.976562 13.289062 41.503906 15.832031 C 41.03125 18.375 40.269531 20.867188 39.3125 23.257812 C 38.355469 25.652344 37.207031 27.949219 35.945312 30.152344 C 33.421875 34.5625 30.464844 38.597656 27.472656 42.453125 C 24.480469 46.308594 21.421875 49.984375 18.605469 53.675781 C 15.800781 57.363281 13.207031 61.066406 11.351562 64.914062 L 11.007812 65.632812 C 10.886719 65.875 10.800781 66.117188 10.691406 66.359375 L 10.378906 67.085938 L 10.101562 67.816406 C 9.726562 68.796875 9.429688 69.78125 9.167969 70.777344 C 9.097656 71.023438 9.058594 71.277344 9 71.527344 C 8.945312 71.777344 8.886719 72.027344 8.835938 72.277344 L 8.714844 73.035156 C 8.679688 73.289062 8.625 73.539062 8.605469 73.792969 L 8.527344 74.558594 C 8.515625 74.6875 8.496094 74.816406 8.488281 74.941406 L 8.472656 75.328125 C 8.464844 75.585938 8.453125 75.84375 8.4375 76.101562 C 8.425781 76.230469 8.425781 76.359375 8.433594 76.488281 L 8.4375 76.875 C 8.460938 78.949219 8.753906 81.066406 9.289062 83.195312 C 9.824219 85.320312 10.601562 87.449219 11.53125 89.5625 C 12.453125 91.683594 13.582031 93.761719 14.769531 95.839844 C 15.070312 96.359375 15.378906 96.875 15.679688 97.402344 L 16.632812 98.945312 C 16.792969 99.207031 16.945312 99.472656 17.109375 99.730469 C 17.273438 99.984375 17.441406 100.238281 17.605469 100.5 C 17.933594 101.015625 18.261719 101.535156 18.582031 102.070312 C 18.066406 101.726562 17.5625 101.375 17.058594 101.015625 C 16.804688 100.835938 16.554688 100.65625 16.304688 100.472656 C 16.054688 100.285156 15.816406 100.09375 15.570312 99.90625 L 14.117188 98.738281 C 13.644531 98.335938 13.1875 97.917969 12.71875 97.503906 C 12.488281 97.292969 12.25 97.089844 12.023438 96.875 C 11.796875 96.65625 11.578125 96.433594 11.355469 96.214844 L 10.6875 95.550781 L 10.355469 95.214844 L 10.035156 94.867188 C 9.605469 94.40625 9.1875 93.933594 8.761719 93.460938 C 8.351562 92.976562 7.957031 92.472656 7.554688 91.976562 C 5.988281 89.957031 4.578125 87.75 3.441406 85.339844 C 2.304688 82.933594 1.457031 80.316406 1.023438 77.578125 C 0.582031 74.84375 0.550781 72 0.949219 69.242188 C 1.34375 66.480469 2.113281 63.8125 3.125 61.308594 C 4.128906 58.800781 5.371094 56.449219 6.726562 54.234375 C 7.070312 53.691406 7.414062 53.136719 7.765625 52.601562 C 8.125 52.070312 8.476562 51.523438 8.84375 51.003906 C 9.574219 49.960938 10.324219 48.9375 11.085938 47.9375 C 14.140625 43.945312 17.394531 40.292969 20.585938 36.71875 C 23.777344 33.144531 26.917969 29.65625 29.773438 26.027344 C 32.617188 22.398438 35.1875 18.632812 37.078125 14.476562 C 38.023438 12.398438 38.800781 10.226562 39.359375 7.949219 C 39.917969 5.667969 40.234375 3.289062 40.390625 0.820312 "/></g></g><mask id="fde8b3271b"><g filter="url(#0c3e9d6bc9)"><rect x="0" width="375" y="0" height="374.999991" style="fill:#000000;fill-opacity:0.13;stroke:none;"/></g></mask></g><g mask="url(#665b2a35b9)" transform="matrix(1,0,0,1,246,165)"><g clip-path="url(#3c0afc1617)"><g clip-rule="nonzero" clip-path="url(#51dfb19899)"><path style=" stroke:none;fill-rule:nonzero;fill:#000000;fill-opacity:1;" d="M 0.414062 33.203125 L 34.914062 33.203125 L 34.914062 35.121094 L 0.414062 35.121094 Z M 0.414062 33.203125 "/></g><g clip-rule="nonzero" clip-path="url(#00776f8032)"><path style=" stroke:none;fill-rule:nonzero;fill:#000000;fill-opacity:1;" d="M 3.289062 26.496094 L 1.375 26.496094 C 0.84375 26.496094 0.414062 26.925781 0.414062 27.453125 L 0.414062 31.289062 L 4.25 31.289062 L 4.25 27.453125 C 4.25 26.925781 3.820312 26.496094 3.289062 26.496094 Z M 3.289062 26.496094 "/></g><path style=" stroke:none;fill-rule:nonzero;fill:#000000;fill-opacity:1;" d="M 10.957031 20.746094 L 9.039062 20.746094 C 8.511719 20.746094 8.082031 21.175781 8.082031 21.703125 L 8.082031 31.285156 L 11.914062 31.285156 L 11.914062 21.703125 C 11.914062 21.175781 11.484375 20.746094 10.957031 20.746094 Z M 10.957031 20.746094 "/><path style=" stroke:none;fill-rule:nonzero;fill:#000000;fill-opacity:1;" d="M 18.625 22.664062 L 16.707031 22.664062 C 16.179688 22.664062 15.75 23.089844 15.75 23.621094 L 15.75 31.289062 L 19.582031 31.289062 L 19.582031 23.621094 C 19.582031 23.089844 19.152344 22.664062 18.625 22.664062 Z M 18.625 22.664062 "/><path style=" stroke:none;fill-rule:nonzero;fill:#000000;fill-opacity:1;" d="M 26.289062 15.476562 L 24.375 15.476562 C 23.84375 15.476562 23.414062 15.902344 23.414062 16.433594 L 23.414062 31.289062 L 27.25 31.289062 L 27.25 16.433594 C 27.25 15.902344 26.820312 15.476562 26.289062 15.476562 Z M 26.289062 15.476562 "/><g clip-rule="nonzero" clip-path="url(#ce897c7365)"><path style=" stroke:none;fill-rule:nonzero;fill:#000000;fill-opacity:1;" d="M 33.957031 3.976562 L 32.039062 3.976562 C 31.511719 3.976562 31.082031 4.402344 31.082031 4.933594 L 31.082031 31.289062 L 34.914062 31.289062 L 34.914062 4.933594 C 34.914062 4.402344 34.484375 3.976562 33.957031 3.976562 Z M 33.957031 3.976562 "/></g><g clip-rule="nonzero" clip-path="url(#360258e1e4)"><path style=" stroke:none;fill-rule:nonzero;fill:#000000;fill-opacity:1;" d="M 7.601562 10.722656 L 7.601562 9.246094 L 6.164062 9.246094 L 6.164062 11.691406 C 7.257812 11.910156 8.082031 12.878906 8.082031 14.039062 C 8.082031 15.359375 7.007812 16.433594 5.6875 16.433594 C 4.363281 16.433594 3.289062 15.359375 3.289062 14.039062 C 3.289062 12.878906 4.113281 11.910156 5.207031 11.691406 L 5.207031 2.539062 C 5.207031 2.273438 5.421875 2.058594 5.6875 2.058594 C 5.949219 2.058594 6.164062 2.273438 6.164062 2.539062 L 6.164062 3.496094 L 7.601562 3.496094 L 7.601562 2.539062 C 7.601562 1.480469 6.746094 0.621094 5.6875 0.621094 C 4.628906 0.621094 3.769531 1.480469 3.769531 2.539062 L 3.769531 10.722656 C 2.625 11.382812 1.851562 12.621094 1.851562 14.039062 C 1.851562 16.152344 3.570312 17.871094 5.6875 17.871094 C 7.804688 17.871094 9.519531 16.152344 9.519531 14.039062 C 9.519531 12.621094 8.746094 11.382812 7.601562 10.722656 Z M 7.601562 10.722656 "/></g><path style=" stroke:none;fill-rule:nonzero;fill:#000000;fill-opacity:1;" d="M 6.164062 6.851562 L 7.601562 6.851562 L 7.601562 8.289062 L 6.164062 8.289062 Z M 6.164062 6.851562 "/><path style=" stroke:none;fill-rule:nonzero;fill:#000000;fill-opacity:1;" d="M 6.164062 4.453125 L 7.601562 4.453125 L 7.601562 5.890625 L 6.164062 5.890625 Z M 6.164062 4.453125 "/></g><mask id="665b2a35b9"><g filter="url(#0c3e9d6bc9)"><rect x="0" width="375" y="0" height="374.999991" style="fill:#000000;fill-opacity:0.36;stroke:none;"/></g></mask></g><g style="fill:#000000;fill-opacity:1;"><g transform="translate(90.375716, 186.261331)"><path style="stroke:none" d="M 8.28125 -5.203125 L 6.5625 0 L 1.125 0 L 10.359375 -28 L 15.796875 -28 L 25.046875 0 L 19.5625 0 L 17.875 -5.203125 Z M 13.078125 -19.71875 L 10 -10.359375 L 16.15625 -10.359375 Z M 13.078125 -19.71875 "/></g></g><g style="fill:#000000;fill-opacity:1;"><g transform="translate(116.53312, 186.261331)"><path style="stroke:none" d="M 6.3125 0 L 1.125 0 L 1.125 -28 L 6.3125 -28 Z M 6.3125 0 "/></g></g><g style="fill:#000000;fill-opacity:1;"><g transform="translate(123.932389, 186.261331)"><path style="stroke:none" d="M 1.125 0 L 1.125 -28 L 14.125 -28 C 15.644531 -28 17.054688 -27.71875 18.359375 -27.15625 C 19.660156 -26.59375 20.8125 -25.8125 21.8125 -24.8125 C 22.8125 -23.8125 23.597656 -22.648438 24.171875 -21.328125 C 24.753906 -20.015625 25.046875 -18.613281 25.046875 -17.125 C 25.046875 -15.332031 24.648438 -13.679688 23.859375 -12.171875 C 23.078125 -10.671875 22.019531 -9.425781 20.6875 -8.4375 C 20.976562 -7.507812 21.515625 -6.738281 22.296875 -6.125 C 23.085938 -5.507812 24.003906 -5.203125 25.046875 -5.203125 L 25.046875 0 C 23.628906 0 22.3125 -0.269531 21.09375 -0.8125 C 19.882812 -1.363281 18.832031 -2.117188 17.9375 -3.078125 C 17.039062 -4.035156 16.367188 -5.144531 15.921875 -6.40625 C 15.546875 -6.320312 15.210938 -6.265625 14.921875 -6.234375 C 14.679688 -6.234375 14.414062 -6.234375 14.125 -6.234375 L 6.3125 -6.234375 L 6.3125 0 Z M 6.3125 -22.796875 L 6.3125 -11.40625 L 14.125 -11.40625 C 15.238281 -11.40625 16.265625 -11.707031 17.203125 -12.3125 C 18.003906 -12.820312 18.644531 -13.492188 19.125 -14.328125 C 19.601562 -15.171875 19.84375 -16.101562 19.84375 -17.125 C 19.84375 -18.164062 19.585938 -19.117188 19.078125 -19.984375 C 18.566406 -20.847656 17.878906 -21.53125 17.015625 -22.03125 C 16.148438 -22.539062 15.1875 -22.796875 14.125 -22.796875 Z M 6.3125 -22.796875 "/></g></g><g style="fill:#000000;fill-opacity:1;"><g transform="translate(116.315169, 220.337417)"><path style="stroke:none" d="M 6.3125 0 L 1.125 0 L 1.125 -28 L 25 -28 L 25 -22.796875 L 6.3125 -22.796875 L 6.3125 -16.59375 L 19.84375 -16.59375 L 19.84375 -11.40625 L 6.3125 -11.40625 L 6.3125 -5.203125 L 25 -5.203125 L 25 0 Z M 6.3125 0 "/></g></g><g style="fill:#000000;fill-opacity:1;"><g transform="translate(142.432576, 220.337417)"><path style="stroke:none" d="M 25.046875 0 L 1.125 0 L 1.125 -28 L 6.3125 -28 L 6.3125 -5.203125 L 25.046875 -5.203125 Z M 25.046875 0 "/></g></g><g style="fill:#000000;fill-opacity:1;"><g transform="translate(168.549983, 220.337417)"><path style="stroke:none" d="M 6.3125 0 L 1.125 0 L 1.125 -28 L 6.3125 -28 Z M 6.3125 0 "/></g></g><g style="fill:#000000;fill-opacity:1;"><g transform="translate(175.949252, 220.337417)"><path style="stroke:none" d="M 16.71875 -5.203125 C 17.570312 -5.203125 18.304688 -5.5 18.921875 -6.09375 C 19.535156 -6.695312 19.84375 -7.425781 19.84375 -8.28125 C 19.84375 -9.15625 19.535156 -9.894531 18.921875 -10.5 C 18.304688 -11.101562 17.570312 -11.40625 16.71875 -11.40625 L 9.40625 -11.40625 C 7.882812 -11.40625 6.492188 -11.773438 5.234375 -12.515625 C 3.984375 -13.265625 2.984375 -14.265625 2.234375 -15.515625 C 1.492188 -16.773438 1.125 -18.175781 1.125 -19.71875 C 1.125 -21.238281 1.492188 -22.625 2.234375 -23.875 C 2.984375 -25.132812 3.984375 -26.132812 5.234375 -26.875 C 6.492188 -27.625 7.882812 -28 9.40625 -28 L 16.71875 -28 C 18.269531 -28 19.671875 -27.625 20.921875 -26.875 C 22.171875 -26.132812 23.171875 -25.132812 23.921875 -23.875 C 24.671875 -22.625 25.046875 -21.238281 25.046875 -19.71875 L 19.84375 -19.71875 C 19.84375 -20.570312 19.535156 -21.296875 18.921875 -21.890625 C 18.304688 -22.492188 17.570312 -22.796875 16.71875 -22.796875 L 9.40625 -22.796875 C 8.550781 -22.796875 7.820312 -22.492188 7.21875 -21.890625 C 6.613281 -21.296875 6.3125 -20.570312 6.3125 -19.71875 C 6.3125 -18.84375 6.613281 -18.101562 7.21875 -17.5 C 7.820312 -16.894531 8.550781 -16.59375 9.40625 -16.59375 L 16.71875 -16.59375 C 18.269531 -16.59375 19.671875 -16.21875 20.921875 -15.46875 C 22.171875 -14.726562 23.171875 -13.726562 23.921875 -12.46875 C 24.671875 -11.21875 25.046875 -9.820312 25.046875 -8.28125 C 25.046875 -6.757812 24.671875 -5.367188 23.921875 -4.109375 C 23.171875 -2.859375 22.171875 -1.859375 20.921875 -1.109375 C 19.671875 -0.367188 18.269531 0 16.71875 0 L 9.40625 0 C 7.882812 0 6.492188 -0.367188 5.234375 -1.109375 C 3.984375 -1.859375 2.984375 -2.859375 2.234375 -4.109375 C 1.492188 -5.367188 1.125 -6.757812 1.125 -8.28125 L 6.3125 -8.28125 C 6.3125 -7.425781 6.613281 -6.695312 7.21875 -6.09375 C 7.820312 -5.5 8.550781 -5.203125 9.40625 -5.203125 Z M 16.71875 -5.203125 "/></g></g><g style="fill:#000000;fill-opacity:1;"><g transform="translate(202.106656, 220.337417)"><path style="stroke:none" d="M 6.28125 0 L 1.125 0 L 1.125 -28 L 25 -28 L 25 -22.796875 L 6.28125 -22.796875 L 6.28125 -16.59375 L 25 -16.59375 L 25 -11.40625 L 6.28125 -11.40625 L 6.28125 -5.203125 L 25 -5.203125 L 25 0 Z M 6.28125 0 "/></g></g><g style="fill:#000000;fill-opacity:1;"><g transform="translate(228.224063, 220.337417)"><path style="stroke:none" d="M 1.515625 -5.203125 L 6.71875 -5.203125 L 6.71875 0 C 6.71875 1.039062 6.460938 1.976562 5.953125 2.8125 C 5.453125 3.65625 4.78125 4.328125 3.9375 4.828125 C 3.101562 5.335938 2.164062 5.59375 1.125 5.59375 L 1.125 0.40625 C 1.382812 0.40625 1.515625 0.269531 1.515625 0 Z M 1.515625 -5.203125 "/></g></g><g style="fill:#000000;fill-opacity:1;"><g transform="translate(242.846912, 219.061274)"><path style="stroke:none" d="M 13.765625 0 L 0.609375 0 L 0.609375 -15.40625 L 3.46875 -15.40625 L 3.46875 -2.859375 L 13.765625 -2.859375 Z M 13.765625 0 "/></g></g><g style="fill:#000000;fill-opacity:1;"><g transform="translate(257.210356, 219.061274)"><path style="stroke:none" d="M 13.765625 0 L 0.609375 0 L 0.609375 -15.40625 L 3.46875 -15.40625 L 3.46875 -2.859375 L 13.765625 -2.859375 Z M 13.765625 0 "/></g></g><g style="fill:#000000;fill-opacity:1;"><g transform="translate(270.253953, 219.061274)"><path style="stroke:none" d="M 13.75 -2.265625 C 13 -1.503906 12.15625 -0.9375 11.21875 -0.5625 C 10.28125 -0.1875 9.3125 0 8.3125 0 C 7.3125 0 6.34375 -0.1875 5.40625 -0.5625 C 4.46875 -0.9375 3.625 -1.503906 2.875 -2.265625 C 2.113281 -3.015625 1.546875 -3.859375 1.171875 -4.796875 C 0.796875 -5.734375 0.609375 -6.703125 0.609375 -7.703125 C 0.609375 -8.703125 0.796875 -9.671875 1.171875 -10.609375 C 1.546875 -11.546875 2.113281 -12.394531 2.875 -13.15625 C 3.625 -13.90625 4.46875 -14.46875 5.40625 -14.84375 C 6.34375 -15.21875 7.3125 -15.40625 8.3125 -15.40625 C 9.3125 -15.40625 10.28125 -15.21875 11.21875 -14.84375 C 12.15625 -14.46875 13 -13.898438 13.75 -13.140625 L 11.75 -11.125 C 11.113281 -11.757812 10.378906 -12.179688 9.546875 -12.390625 C 8.722656 -12.609375 7.894531 -12.609375 7.0625 -12.390625 C 6.238281 -12.179688 5.515625 -11.757812 4.890625 -11.125 C 4.253906 -10.5 3.828125 -9.769531 3.609375 -8.9375 C 3.398438 -8.113281 3.398438 -7.285156 3.609375 -6.453125 C 3.828125 -5.628906 4.253906 -4.898438 4.890625 -4.265625 C 5.515625 -3.640625 6.238281 -3.21875 7.0625 -3 C 7.894531 -2.789062 8.722656 -2.789062 9.546875 -3 C 10.378906 -3.21875 11.113281 -3.640625 11.75 -4.265625 Z M 13.75 -2.265625 "/></g></g></g></svg>